<?xml version="1.0" standalone="no"?>
<!DOCTYPE svg PUBLIC "-//W3C//DTD SVG 20010904//EN"
 "http://www.w3.org/TR/2001/REC-SVG-20010904/DTD/svg10.dtd">
<svg version="1.0" xmlns="http://www.w3.org/2000/svg"
 width="1024.000000pt" height="1536.000000pt" viewBox="0 0 1024.000000 1536.000000"
 preserveAspectRatio="xMidYMid meet">

<g transform="translate(0.000000,1536.000000) scale(0.100000,-0.100000)"
fill="#000000" stroke="none">
<path d="M4835 11181 c-33 -3 66 -6 220 -6 154 0 323 -3 375 -7 68 -4 82 -3
50 3 -55 11 -562 19 -645 10z"/>
<path d="M4723 11163 c9 -2 25 -2 35 0 9 3 1 5 -18 5 -19 0 -27 -2 -17 -5z"/>
<path d="M4653 11153 c9 -2 25 -2 35 0 9 3 1 5 -18 5 -19 0 -27 -2 -17 -5z"/>
<path d="M5553 11153 c9 -2 25 -2 35 0 9 3 1 5 -18 5 -19 0 -27 -2 -17 -5z"/>
<path d="M4598 11143 c6 -2 18 -2 25 0 6 3 1 5 -13 5 -14 0 -19 -2 -12 -5z"/>
<path d="M5623 11143 c9 -2 23 -2 30 0 6 3 -1 5 -18 5 -16 0 -22 -2 -12 -5z"/>
<path d="M4543 11133 c9 -2 23 -2 30 0 6 3 -1 5 -18 5 -16 0 -22 -2 -12 -5z"/>
<path d="M5715 11129 c101 -27 248 -59 252 -55 5 5 -192 53 -247 60 l-45 5 40
-10z"/>
<path d="M4382 11103 c-57 -14 -101 -27 -99 -29 2 -2 57 9 123 25 65 16 110
29 99 29 -11 1 -66 -11 -123 -25z"/>
<path d="M4981 11096 c2 -2 101 -5 219 -8 118 -2 181 -1 140 2 -79 8 -366 13
-359 6z"/>
<path d="M4815 11083 c-132 -16 -261 -40 -380 -69 -158 -40 -308 -85 -301 -92
3 -2 40 8 83 22 183 60 454 116 658 135 73 7 79 8 30 8 -33 0 -73 -2 -90 -4z"/>
<path d="M5438 11073 c12 -2 30 -2 40 0 9 3 -1 5 -23 4 -22 0 -30 -2 -17 -4z"/>
<path d="M4225 11060 c-13 -5 -14 -9 -5 -9 8 0 24 4 35 9 13 5 14 9 5 9 -8 0
-24 -4 -35 -9z"/>
<path d="M5540 11059 c60 -10 108 -9 55 2 -22 4 -53 8 -70 7 -22 0 -19 -3 15
-9z"/>
<path d="M6058 11040 c113 -39 131 -44 112 -31 -16 12 -170 61 -186 60 -5 0
28 -13 74 -29z"/>
<path d="M5675 11038 c22 -5 96 -23 163 -39 68 -17 126 -29 128 -26 8 8 -289
79 -319 76 -7 -1 6 -5 28 -11z"/>
<path d="M4102 11023 c-24 -8 -42 -17 -40 -19 5 -4 108 26 108 32 0 7 -24 3
-68 -13z"/>
<path d="M4885 10990 c-240 -21 -511 -80 -741 -160 -147 -51 -406 -176 -539
-260 -311 -195 -554 -420 -774 -715 -116 -157 -254 -383 -310 -509 -38 -88
-22 -63 47 69 373 716 963 1220 1690 1441 377 115 781 157 1141 120 180 -19
231 -16 69 4 -127 15 -461 21 -583 10z"/>
<path d="M3975 10975 c-25 -12 -26 -14 -5 -9 28 7 60 23 45 23 -5 0 -23 -6
-40 -14z"/>
<path d="M6221 10986 c2 -2 49 -23 104 -46 187 -79 399 -193 535 -288 36 -25
81 -57 100 -70 l35 -24 -30 27 c-61 54 -265 182 -400 252 -165 84 -369 173
-344 149z"/>
<path d="M5980 10967 c3 -3 50 -21 105 -40 128 -45 245 -92 319 -129 32 -16
60 -27 62 -25 8 7 -194 97 -318 141 -136 49 -175 61 -168 53z"/>
<path d="M3900 10945 c-14 -8 -20 -14 -15 -14 6 0 21 6 35 14 14 8 21 14 15
14 -5 0 -21 -6 -35 -14z"/>
<path d="M5665 10940 c259 -58 366 -92 588 -186 485 -205 907 -551 1224 -1004
86 -123 211 -342 257 -453 16 -37 31 -65 33 -63 5 5 -61 158 -87 201 -10 17
-35 62 -55 100 -51 95 -185 294 -258 384 -412 504 -951 848 -1571 1001 -67 16
-145 32 -172 35 -31 3 -16 -2 41 -15z"/>
<path d="M3820 10910 c-19 -11 -30 -19 -25 -19 6 0 26 8 45 19 19 11 31 19 25
19 -5 0 -26 -8 -45 -19z"/>
<path d="M4080 10909 c-14 -5 -56 -21 -93 -35 -38 -15 -67 -28 -65 -30 4 -3
189 64 197 72 7 7 -13 3 -39 -7z"/>
<path d="M4825 10905 c-466 -54 -906 -215 -1270 -463 -412 -281 -777 -718
-954 -1144 l-45 -107 -45 -4 -46 -3 48 -2 c48 -2 49 -2 65 41 9 23 54 116 100
207 225 449 586 834 1028 1095 310 184 695 314 1084 366 47 6 189 14 315 18
l230 8 -200 0 c-110 0 -249 -5 -310 -12z"/>
<path d="M5358 10903 c12 -2 32 -2 45 0 12 2 2 4 -23 4 -25 0 -35 -2 -22 -4z"/>
<path d="M5448 10893 c12 -2 30 -2 40 0 9 3 -1 5 -23 4 -22 0 -30 -2 -17 -4z"/>
<path d="M5523 10883 c9 -2 25 -2 35 0 9 3 1 5 -18 5 -19 0 -27 -2 -17 -5z"/>
<path d="M3730 10865 c-14 -8 -20 -14 -14 -15 5 0 19 7 30 15 24 18 16 19 -16
0z"/>
<path d="M5595 10873 c11 -2 72 -16 135 -30 63 -13 169 -42 235 -63 65 -22
121 -38 123 -35 14 13 -442 137 -494 134 -17 -1 -17 -2 1 -6z"/>
<path d="M3601 10799 c-452 -243 -892 -672 -1189 -1159 -43 -71 -54 -90 -48
-90 2 0 35 50 72 111 154 248 393 537 594 718 177 158 404 321 573 411 82 44
109 61 95 60 -2 0 -45 -23 -97 -51z"/>
<path d="M3810 10795 c-36 -19 -60 -34 -55 -34 6 0 39 15 75 34 36 19 61 34
55 34 -5 0 -39 -15 -75 -34z"/>
<path d="M5099 10783 c-6 -16 -17 -44 -24 -63 -12 -34 -13 -35 -78 -41 -37 -3
-69 -8 -72 -11 -3 -3 20 -24 50 -47 38 -29 55 -48 51 -58 -3 -8 -9 -40 -13
-70 -6 -52 -5 -55 13 -45 10 6 30 22 43 36 32 34 54 33 113 -5 27 -17 51 -29
54 -26 3 3 -2 33 -12 68 l-18 62 47 41 c26 23 47 44 47 49 0 4 -26 7 -59 7
-66 0 -70 3 -96 78 -11 28 -23 52 -27 52 -5 0 -13 -12 -19 -27z"/>
<path d="M6481 10766 c2 -2 15 -9 29 -15 24 -11 24 -11 6 3 -16 13 -49 24 -35
12z"/>
<path d="M3678 10729 c-32 -16 -58 -32 -58 -34 0 -3 27 8 60 25 33 17 60 32
60 35 0 7 2 8 -62 -26z"/>
<path d="M6100 10738 c3 -3 55 -27 115 -54 234 -104 384 -192 575 -337 133
-102 161 -126 294 -256 234 -228 444 -537 562 -826 l33 -80 51 -1 50 -1 -50 4
c-33 3 -50 9 -50 18 0 12 -14 45 -80 190 -12 28 -43 86 -68 130 -171 299 -384
549 -653 765 -171 138 -254 195 -404 278 -132 73 -401 195 -375 170z"/>
<path d="M6558 10722 c13 -10 51 -33 85 -51 34 -17 51 -24 38 -14 -35 26 -150
87 -123 65z"/>
<path d="M3516 10636 c-349 -220 -659 -522 -910 -886 -109 -159 -119 -175
-185 -302 -71 -136 -126 -259 -101 -228 11 14 20 30 20 36 0 6 23 57 50 114
146 297 375 610 632 862 168 164 318 281 574 445 11 6 16 12 13 12 -3 1 -45
-23 -93 -53z"/>
<path d="M4627 10659 c17 -5 41 -21 52 -35 12 -15 21 -22 21 -16 0 18 -60 62
-83 61 -16 -1 -14 -3 10 -10z"/>
<path d="M5585 10660 c-25 -10 -50 -38 -41 -47 3 -3 6 -1 6 5 0 15 52 42 80
42 11 0 32 -11 45 -25 14 -13 25 -20 25 -15 0 15 -52 50 -74 49 -11 0 -30 -4
-41 -9z"/>
<path d="M4550 10635 c-7 -9 -11 -17 -9 -20 3 -2 10 5 17 15 14 24 10 26 -8 5z"/>
<path d="M6715 10633 c6 -6 46 -34 90 -64 297 -200 564 -462 788 -774 100
-139 152 -225 247 -407 38 -73 70 -130 70 -125 1 28 -154 307 -253 457 -208
314 -518 632 -822 842 -77 53 -141 91 -120 71z"/>
<path d="M4531 10584 c0 -11 3 -14 6 -6 3 7 2 16 -1 19 -3 4 -6 -2 -5 -13z"/>
<path d="M5535 10565 c5 -44 34 -75 69 -74 15 0 11 4 -14 12 -30 10 -37 19
-48 57 l-12 45 5 -40z"/>
<path d="M5699 10575 c-4 -16 -9 -39 -13 -50 -4 -11 0 -7 9 8 9 16 15 38 13
50 -3 18 -5 17 -9 -8z"/>
<path d="M4690 10562 c0 -27 -42 -62 -74 -62 -15 0 -37 10 -51 25 -14 13 -25
20 -25 15 0 -17 53 -50 82 -50 34 0 78 39 78 70 0 11 -2 20 -5 20 -3 0 -5 -8
-5 -18z"/>
<path d="M7000 10556 c0 -3 26 -24 57 -47 86 -64 275 -242 374 -352 113 -125
276 -342 365 -482 38 -60 110 -193 161 -295 51 -102 93 -180 93 -175 0 22
-151 317 -219 430 -179 294 -423 584 -687 815 -57 50 -144 114 -144 106z"/>
<path d="M5650 10500 c-9 -6 -10 -10 -3 -10 6 0 15 5 18 10 8 12 4 12 -15 0z"/>
<path d="M3623 10254 c-3 -9 6 -40 20 -69 l27 -52 0 -408 0 -408 -30 -58 c-38
-75 -25 -78 15 -3 l30 55 0 412 0 412 -27 52 c-16 29 -28 57 -28 63 0 8 78 11
273 8 257 -3 274 -4 313 -25 52 -28 98 -80 115 -130 18 -55 18 -682 0 -737
-18 -52 -74 -112 -135 -144 -51 -27 -53 -27 -316 -32 l-265 -6 251 -2 c212 -2
260 1 303 15 62 20 133 79 164 137 22 40 22 49 22 396 0 353 0 355 -24 403
-26 53 -67 91 -126 118 -35 17 -70 19 -308 19 -237 0 -268 -2 -274 -16z"/>
<path d="M4380 10256 c0 -7 14 -38 30 -69 l30 -57 0 -405 c0 -431 -1 -440 -50
-502 -11 -14 -17 -29 -14 -34 3 -5 151 -8 332 -7 l327 3 -322 2 c-178 2 -323
6 -323 8 0 3 12 24 28 47 l27 42 3 429 3 430 -25 37 c-52 80 -69 75 275 75
l306 1 7 -145 c3 -79 4 -146 1 -149 -3 -3 -20 8 -38 25 -49 47 -68 53 -171 53
l-96 0 0 -95 0 -95 80 0 c72 0 84 3 108 25 15 14 30 25 34 25 4 0 9 -71 11
-157 l3 -158 2 163 c1 109 -1 162 -9 162 -6 0 -25 -11 -43 -25 -27 -21 -44
-25 -98 -25 l-65 0 -7 46 c-3 26 -6 64 -6 85 l0 39 86 0 c92 0 108 -5 168 -56
21 -18 43 -31 47 -28 11 6 12 125 2 242 l-6 82 -318 0 c-262 0 -319 -2 -319
-14z"/>
<path d="M5294 10256 c-3 -8 4 -36 15 -62 l21 -47 -104 -418 c-63 -249 -115
-438 -130 -468 -43 -84 -49 -81 139 -81 157 0 165 1 165 19 0 11 -9 36 -21 55
-19 32 -19 39 -8 95 l13 61 103 0 c114 0 115 0 127 -76 6 -33 3 -49 -13 -75
-12 -19 -21 -44 -21 -56 0 -26 -19 -24 221 -25 66 0 123 3 126 6 4 3 -71 6
-165 6 -157 0 -172 2 -172 18 0 9 9 31 20 47 23 35 24 46 9 115 l-11 50 -118
0 -118 0 -13 -69 c-11 -65 -11 -71 10 -104 11 -19 21 -39 21 -46 0 -8 -46 -11
-155 -11 -85 0 -155 2 -155 5 0 3 11 27 25 53 24 46 126 422 200 738 l38 161
-23 47 c-12 26 -19 50 -16 53 3 4 98 8 211 10 153 3 205 1 205 -8 0 -6 -10
-28 -21 -49 l-22 -38 38 -169 c60 -273 174 -722 191 -755 23 -45 26 -29 5 28
-18 46 -125 469 -156 614 -8 36 -25 111 -38 167 l-25 102 24 52 c13 28 21 55
18 60 -3 5 -102 9 -220 9 -177 0 -216 -3 -220 -14z"/>
<path d="M5984 10256 c-3 -8 6 -34 20 -59 l26 -44 0 -433 0 -432 -27 -49 c-14
-27 -24 -52 -21 -55 8 -7 646 -9 654 -1 3 3 8 76 11 161 6 147 5 156 -13 156
-10 0 -33 -15 -52 -32 -33 -33 -34 -33 -147 -37 l-115 -3 -2 328 c-1 397 -3
378 28 438 14 26 23 54 20 62 -8 21 -374 21 -382 0z m366 -10 c0 -8 -11 -38
-25 -68 l-25 -53 0 -354 0 -353 124 3 c108 4 127 7 148 24 62 55 58 63 58
-104 l0 -151 -321 0 -321 0 29 48 28 47 3 417 3 416 -26 63 c-21 49 -24 64
-13 70 7 5 86 9 176 9 132 0 162 -3 162 -14z"/>
<path d="M3940 9735 l0 -315 43 0 c55 0 76 16 88 65 9 40 10 463 1 511 -6 30
-48 54 -97 54 l-35 0 0 -315z m96 291 c18 -14 19 -30 22 -281 3 -307 1 -319
-66 -313 l-37 3 -3 303 -2 302 33 0 c18 0 42 -6 53 -14z"/>
<path d="M7087 9875 c108 -118 182 -216 255 -335 47 -77 134 -245 162 -312
l15 -38 -28 0 c-25 0 -31 8 -66 88 -75 170 -176 334 -348 564 -39 54 -78 103
-86 110 -18 17 49 -80 109 -157 128 -166 250 -367 310 -511 18 -43 37 -85 42
-91 12 -15 64 -17 73 -3 10 16 -140 305 -221 427 -76 114 -183 242 -270 323
-26 25 -3 -4 53 -65z"/>
<path d="M3150 9893 c-39 -43 -81 -91 -92 -108 -18 -27 -17 -27 13 5 19 20 60
66 92 102 32 37 61 69 65 72 3 3 3 6 0 6 -4 0 -39 -35 -78 -77z"/>
<path d="M3207 9918 c-75 -101 -117 -160 -158 -223 -50 -76 -195 -331 -205
-361 -8 -25 29 36 106 176 35 63 93 158 130 210 126 179 160 230 156 230 -3 0
-16 -15 -29 -32z"/>
<path d="M5491 9950 c-1 -3 -17 -81 -36 -173 -19 -92 -35 -169 -35 -172 0 -3
32 -5 70 -5 60 0 70 2 70 18 0 18 -68 341 -69 332z m52 -332 c-2 -5 -27 -8
-55 -8 -49 0 -50 0 -45 28 3 15 12 65 21 112 27 146 26 146 56 5 15 -71 25
-133 23 -137z"/>
<path d="M2992 9698 c-64 -89 -190 -298 -178 -298 2 0 26 37 51 83 26 45 76
124 111 175 69 99 79 126 16 40z"/>
<path d="M4710 9535 l0 -117 108 4 c102 3 112 5 160 35 l52 32 0 -146 c0 -81
3 -144 6 -140 3 3 8 71 10 151 5 167 5 167 -70 115 -41 -30 -53 -32 -145 -37
l-101 -5 0 34 c0 19 -3 64 -7 102 l-6 67 72 0 c67 0 75 -2 103 -30 33 -33 40
-37 32 -17 -13 35 -66 59 -140 64 l-74 5 0 -117z"/>
<path d="M3233 9540 c-18 -11 -33 -23 -33 -26 0 -4 7 -1 15 6 8 7 32 18 52 26
23 8 30 13 18 14 -11 0 -35 -9 -52 -20z"/>
<path d="M3323 9539 c31 -18 48 -71 36 -112 -5 -20 -17 -41 -27 -47 -12 -8
-13 -10 -2 -8 8 2 23 21 33 41 16 31 17 43 8 69 -13 36 -39 68 -55 68 -6 0 -3
-5 7 -11z"/>
<path d="M2333 9508 c-28 -49 -124 -250 -121 -254 2 -1 36 62 76 142 68 136
87 183 45 112z"/>
<path d="M7026 9518 c10 -14 21 -24 23 -22 3 3 -6 15 -18 27 l-24 22 19 -27z"/>
<path d="M3186 9485 c-3 -9 -6 -22 -5 -28 0 -7 5 -1 10 12 5 13 8 26 5 28 -2
2 -6 -3 -10 -12z"/>
<path d="M6871 9457 c-1 -30 5 -45 28 -68 16 -16 35 -29 43 -29 7 0 -2 9 -19
20 -31 18 -37 31 -46 90 -3 17 -5 12 -6 -13z"/>
<path d="M7051 9454 c0 -11 3 -14 6 -6 3 7 2 16 -1 19 -3 4 -6 -2 -5 -13z"/>
<path d="M3190 9422 c0 -18 49 -62 69 -62 9 0 3 8 -16 19 -17 11 -36 28 -42
38 -6 10 -11 13 -11 5z"/>
<path d="M7018 9398 c-15 -15 -23 -28 -19 -28 9 0 56 49 50 53 -2 1 -16 -10
-31 -25z"/>
<path d="M3288 9363 c7 -3 16 -2 19 1 4 3 -2 6 -13 5 -11 0 -14 -3 -6 -6z"/>
<path d="M2767 9315 c-24 -50 -20 -58 4 -12 11 22 19 41 17 43 -3 2 -12 -12
-21 -31z"/>
<path d="M2804 9241 c-14 -40 -23 -51 -43 -54 -23 -3 -23 -4 3 -3 25 1 31 8
48 50 10 27 17 51 15 53 -3 2 -13 -19 -23 -46z"/>
<path d="M2477 9245 c-24 -50 -20 -58 4 -12 11 22 19 41 17 43 -3 2 -12 -12
-21 -31z"/>
<path d="M2196 9225 c-9 -26 -7 -32 5 -12 6 10 9 21 6 23 -2 3 -7 -2 -11 -11z"/>
<path d="M3045 9222 c-82 -3 -113 -11 -94 -23 7 -5 107 -9 222 -9 177 0 207 2
207 15 0 15 3 15 -215 19 -33 1 -87 0 -120 -2z"/>
<path d="M6893 9222 c-21 -2 -33 -9 -33 -18 0 -12 33 -14 200 -14 131 0 200 4
200 10 0 6 -6 12 -12 15 -17 5 -313 11 -355 7z"/>
<path d="M7921 9224 c-1 -5 5 -18 12 -28 10 -14 24 -16 67 -13 l55 3 -56 2
c-47 2 -58 6 -67 25 -6 12 -11 17 -11 11z"/>
<path d="M2207 9183 c18 -2 50 -2 70 0 21 2 7 4 -32 4 -38 0 -55 -2 -38 -4z"/>
<path d="M1938 8983 c12 -2 30 -2 40 0 9 3 -1 5 -23 4 -22 0 -30 -2 -17 -4z"/>
<path d="M2013 8983 c9 -2 25 -2 35 0 9 3 1 5 -18 5 -19 0 -27 -2 -17 -5z"/>
<path d="M2168 8983 c6 -2 18 -2 25 0 6 3 1 5 -13 5 -14 0 -19 -2 -12 -5z"/>
<path d="M2333 8983 c9 -2 25 -2 35 0 9 3 1 5 -18 5 -19 0 -27 -2 -17 -5z"/>
<path d="M2668 8983 c155 -2 409 -2 565 0 155 1 28 2 -283 2 -311 0 -438 -1
-282 -2z"/>
<path d="M3528 8983 c7 -3 16 -2 19 1 4 3 -2 6 -13 5 -11 0 -14 -3 -6 -6z"/>
<path d="M6673 8983 c9 -2 25 -2 35 0 9 3 1 5 -18 5 -19 0 -27 -2 -17 -5z"/>
<path d="M7093 8983 c119 -2 315 -2 435 0 119 1 21 2 -218 2 -239 0 -337 -1
-217 -2z"/>
<path d="M3508 8913 c888 -2 2337 -2 3220 0 884 1 158 2 -1613 2 -1771 0
-2494 -1 -1607 -2z"/>
<path d="M3061 8790 c-84 -18 -166 -83 -198 -157 -10 -25 -13 -114 -13 -401
l0 -368 29 -45 c32 -51 69 -83 121 -106 54 -24 291 -30 363 -9 70 20 135 69
167 126 l25 45 0 365 c0 356 -1 366 -22 406 -27 51 -83 101 -142 127 -37 17
-71 21 -166 23 -66 2 -140 -1 -164 -6z m248 -10 c83 -14 129 -39 179 -95 60
-69 64 -98 60 -470 -3 -318 -3 -320 -28 -370 -30 -61 -87 -105 -164 -129 -48
-15 -81 -18 -185 -14 -110 4 -132 8 -176 30 -60 31 -98 70 -119 120 -24 55
-24 721 0 776 19 47 68 98 117 123 66 34 203 47 316 29z"/>
<path d="M3153 8560 c-43 -17 -45 -36 -39 -323 5 -255 7 -272 26 -291 29 -30
91 -28 125 4 l26 24 -3 279 -3 279 -24 19 c-24 20 -71 24 -108 9z m81 -14 c43
-18 45 -29 43 -333 -2 -229 -3 -243 -22 -257 -11 -9 -37 -16 -57 -16 -66 0
-68 8 -68 310 0 146 4 270 8 277 6 9 40 28 60 32 1 1 18 -5 36 -13z"/>
<path d="M3849 8790 c-90 -15 -160 -65 -201 -142 -23 -43 -23 -47 -23 -393 0
-192 3 -366 8 -386 11 -51 68 -113 135 -146 55 -27 63 -28 207 -28 132 0 155
3 195 21 51 24 82 49 98 81 8 15 12 105 12 287 l0 266 -152 -2 -153 -2 149 -3
149 -4 -5 -270 c-6 -307 -1 -289 -97 -337 -53 -26 -63 -27 -196 -27 -126 0
-145 3 -193 24 -69 31 -129 98 -137 154 -4 23 -5 200 -3 393 l3 351 28 41 c69
105 213 139 467 111 l100 -12 2 -151 2 -151 5 145 c4 80 5 150 3 156 -7 25
-294 42 -403 24z"/>
<path d="M2084 8777 c-2 -7 -3 -71 -1 -143 l3 -129 2 138 2 137 344 0 344 0 4
-137 c2 -76 0 -142 -4 -147 -5 -6 -22 4 -42 23 -28 28 -43 34 -95 38 l-61 6 0
-379 0 -379 25 -44 c14 -24 23 -46 21 -48 -2 -3 -85 -4 -184 -3 -115 0 -183
-3 -187 -10 -4 -7 57 -10 189 -10 107 0 197 4 200 9 3 5 -8 33 -24 62 l-30 54
0 368 0 367 23 0 c43 0 94 -20 127 -50 38 -34 45 -36 54 -14 8 21 8 233 0 273
l-6 31 -350 0 c-277 0 -350 -3 -354 -13z"/>
<path d="M4618 8783 c229 -3 304 -6 307 -16 8 -26 10 -297 2 -297 -5 0 -18 11
-29 25 -36 46 -89 65 -178 65 l-80 0 0 -95 0 -95 74 0 c61 0 79 4 110 25 l36
24 0 -166 0 -167 -38 37 c-37 36 -40 37 -110 37 l-72 0 0 -111 0 -111 108 3
c102 4 111 6 158 36 27 18 41 33 32 33 -9 0 -20 -5 -24 -11 -17 -29 -90 -49
-176 -49 l-88 0 0 100 0 100 64 0 c59 0 66 -3 101 -35 21 -19 42 -32 47 -29
11 7 10 344 -2 344 -5 0 -26 -11 -47 -25 -31 -22 -46 -25 -98 -23 l-60 3 0 78
c0 42 3 77 8 77 4 0 43 0 87 0 l81 0 48 -45 c68 -64 73 -54 66 126 -4 79 -8
150 -10 157 -3 9 -73 11 -312 10 l-308 -3 303 -2z"/>
<path d="M4995 8668 c-4 -68 -5 -139 -3 -158 4 -48 31 -51 74 -9 27 26 46 35
87 40 l52 6 -52 2 c-45 1 -56 -3 -93 -34 -23 -19 -44 -35 -46 -35 -2 0 -4 68
-4 150 l0 150 345 0 345 0 0 -150 c0 -96 -4 -150 -10 -150 -6 0 -27 15 -46 33
-38 34 -65 44 -128 46 l-39 1 5 -369 6 -370 32 -55 31 -56 -190 0 c-105 0
-191 3 -191 6 0 3 8 18 19 32 40 58 43 88 40 452 -1 192 -6 350 -11 350 -4 0
-8 -167 -8 -370 l0 -370 -30 -53 c-17 -30 -27 -57 -23 -60 3 -4 93 -7 200 -7
221 0 225 2 177 73 l-29 42 -3 368 -3 367 51 0 c43 0 55 -5 90 -36 22 -20 47
-34 57 -32 20 4 19 -7 15 203 l-2 115 -354 0 -354 0 -7 -122z"/>
<path d="M5737 8783 c-4 -3 -7 -13 -7 -22 1 -14 2 -13 11 2 9 15 29 17 194 17
105 0 185 -4 185 -9 0 -5 -13 -38 -30 -73 -28 -59 -30 -70 -30 -185 0 -176 18
-164 22 14 3 143 4 150 31 191 46 71 44 72 -176 72 -107 0 -197 -3 -200 -7z"/>
<path d="M6184 8776 c-3 -7 7 -35 23 -62 26 -46 28 -58 31 -181 l4 -132 -59
-4 -58 -3 63 -2 62 -2 0 137 c0 133 -1 138 -29 189 -17 28 -27 55 -24 58 4 3
84 6 180 6 199 0 205 -3 162 -74 l-24 -41 -3 -413 -3 -413 31 -60 c16 -33 30
-62 30 -64 0 -3 -90 -5 -201 -5 -131 0 -198 -3 -194 -10 4 -6 82 -10 201 -10
158 0 196 3 200 14 3 8 -7 38 -21 67 l-27 52 0 419 1 418 27 48 c46 81 44 82
-176 82 -152 0 -192 -3 -196 -14z"/>
<path d="M6616 8774 c-3 -8 5 -36 19 -62 l25 -47 0 -425 0 -425 -29 -52 c-20
-37 -25 -55 -18 -62 7 -7 116 -11 328 -11 280 0 318 2 323 16 3 9 6 81 6 160
0 111 -3 146 -13 150 -8 3 -37 -11 -66 -31 -29 -19 -47 -35 -39 -35 7 0 30 14
51 31 20 17 41 27 47 24 16 -10 13 -292 -2 -296 -7 -2 -154 -3 -327 -1 -296 3
-312 4 -297 20 44 50 46 69 46 515 l0 424 -25 47 c-14 26 -23 52 -20 57 4 5
133 9 306 9 l299 0 0 -162 0 -162 -37 37 c-48 46 -108 67 -194 67 -80 0 -73
15 -70 -137 l1 -53 68 0 c55 0 74 4 104 25 20 14 39 25 42 25 4 0 6 -72 6
-160 0 -110 -3 -160 -11 -160 -6 0 -24 14 -39 30 -28 30 -32 31 -101 28 l-73
-3 0 -105 -1 -105 105 -1 105 0 -97 3 -98 4 0 99 0 100 60 0 c52 0 64 -4 95
-31 60 -53 65 -43 65 146 0 185 0 185 -66 140 -29 -20 -49 -25 -95 -25 l-59 0
0 80 0 80 83 0 c89 0 129 -16 174 -69 23 -26 39 -22 43 9 1 8 2 81 1 163 l-1
147 -309 0 c-271 0 -310 -2 -315 -16z"/>
<path d="M7290 8773 c0 -10 14 -38 31 -63 l30 -44 -3 -426 -3 -425 -28 -50
c-28 -50 -28 -50 -3 -20 15 17 31 46 36 65 6 20 10 205 10 443 0 387 -1 410
-20 447 -11 21 -24 41 -30 45 -5 3 -10 13 -10 21 0 12 35 14 223 14 299 0 369
-13 440 -79 53 -48 57 -66 57 -244 0 -91 -3 -179 -7 -197 -3 -19 -25 -52 -49
-78 l-44 -45 49 -146 c49 -147 95 -256 113 -267 5 -3 0 12 -11 34 -24 47 -38
84 -93 250 l-40 122 35 39 c54 60 62 95 62 276 0 88 -3 172 -8 187 -10 36 -62
95 -101 115 -71 37 -126 43 -383 43 -234 0 -253 -1 -253 -17z"/>
<path d="M4320 8746 c0 -2 11 -24 25 -49 l26 -45 -3 -419 -3 -418 -29 -48
c-48 -81 -60 -78 306 -75 l323 3 3 159 c1 88 0 157 -3 154 -3 -3 -6 -65 -6
-138 0 -73 -3 -138 -6 -146 -4 -12 -60 -14 -319 -14 -292 0 -338 4 -303 26 6
3 20 25 30 48 17 38 19 72 19 460 l0 419 -25 44 c-23 38 -35 52 -35 39z"/>
<path d="M5760 8715 c0 -4 7 -19 16 -36 13 -26 15 -86 12 -452 l-3 -422 -29
-49 c-23 -39 -26 -50 -15 -57 8 -5 96 -9 197 -9 145 0 184 3 188 14 3 7 -6 38
-20 69 -24 52 -26 65 -26 217 l0 161 78 -3 77 -3 0 -160 c0 -156 -1 -161 -28
-207 -38 -64 -34 -74 6 -13 l32 50 3 173 3 172 -96 0 -97 0 4 -167 c3 -159 5
-171 31 -222 15 -30 25 -56 23 -59 -5 -4 -359 -3 -363 2 -2 2 8 25 22 51 l25
48 0 424 c0 360 -2 428 -15 453 -14 28 -25 38 -25 25z"/>
<path d="M7620 8419 l0 -152 50 5 c56 6 90 30 89 62 0 21 0 21 -9 1 -12 -31
-31 -43 -78 -51 l-42 -7 0 143 c0 125 2 141 16 136 9 -3 28 -6 43 -6 47 0 60
-19 70 -100 6 -58 9 -65 10 -30 2 82 -9 120 -40 135 -15 8 -46 15 -69 15 l-40
0 0 -151z"/>
<path d="M2215 8553 c-16 -3 -45 -17 -64 -31 -19 -15 -44 -32 -55 -39 -20 -12
-20 -12 -1 -13 10 0 33 14 51 31 30 29 82 48 132 49 l22 0 0 -362 0 -361 -37
-66 c-20 -36 -30 -60 -21 -54 8 7 28 36 44 65 l29 53 0 365 0 365 -35 1 c-19
1 -48 -1 -65 -3z"/>
<path d="M3954 8550 c-52 -21 -54 -35 -54 -319 0 -257 1 -264 22 -282 13 -12
36 -19 65 -19 55 0 63 17 63 141 l0 89 -40 0 -39 0 -4 98 -3 97 -2 -102 -2
-103 38 0 38 0 -3 -96 c-1 -53 -4 -99 -6 -101 -3 -2 -21 -7 -41 -10 -27 -4
-42 -1 -56 12 -19 17 -20 32 -20 272 0 163 4 262 11 275 23 43 126 62 193 34
18 -7 48 -28 68 -45 20 -17 39 -31 44 -31 12 0 -76 74 -105 87 -30 14 -136 16
-167 3z"/>
<path d="M6098 8383 c7 -3 16 -2 19 1 4 3 -2 6 -13 5 -11 0 -14 -3 -6 -6z"/>
<path d="M7620 7947 c0 -133 2 -145 25 -190 l25 -47 -187 -1 c-104 -1 -192 -1
-196 0 -5 1 -6 -3 -2 -9 9 -14 392 -14 401 1 3 6 2 14 -3 18 -6 3 -20 25 -32
48 -18 37 -21 59 -21 179 l0 136 23 -6 c12 -3 25 -6 28 -6 4 0 9 -19 13 -42 4
-24 13 -63 20 -88 8 -25 24 -81 36 -125 36 -131 27 -125 190 -125 82 0 141 4
145 10 4 6 -46 10 -144 10 l-150 0 -14 48 c-8 26 -29 111 -48 189 l-34 143
-37 0 -38 0 0 -143z"/>
<path d="M5105 7533 l3195 -3 0 -40 0 -40 -3195 -3 -3195 -2 3197 0 3198 0 0
45 0 45 -3198 0 -3197 0 3195 -2z"/>
<path d="M3236 7361 c-9 -14 226 -176 459 -319 137 -83 155 -96 155 -110 0 -8
-16 -4 -50 13 -62 32 -65 26 -5 -10 45 -26 65 -26 65 1 0 12 -88 75 -205 144
-33 20 -234 152 -378 248 -26 18 -34 28 -25 34 10 6 10 8 1 8 -6 0 -14 -4 -17
-9z"/>
<path d="M3706 7363 l441 -3 -86 -173 c-89 -177 -141 -287 -141 -300 0 -4 -8
-20 -19 -35 -35 -52 -170 -283 -158 -272 14 13 129 194 141 223 7 17 24 41 36
52 l23 20 -7 -25 c-13 -51 -37 -172 -34 -174 6 -5 166 -46 176 -46 35 0 62 51
121 235 33 105 83 244 109 310 l49 120 49 -5 c94 -10 230 -3 304 14 84 19 292
33 336 21 27 -7 18 -13 -115 -79 l-145 -71 -37 -65 c-20 -36 -52 -82 -71 -104
-51 -60 -68 -89 -68 -118 0 -14 -6 -28 -12 -31 -19 -7 9 -54 55 -91 31 -25 49
-31 103 -34 80 -5 136 14 208 72 98 79 127 98 186 122 70 28 84 29 147 8 147
-49 522 -360 538 -446 8 -42 -15 -84 -59 -108 -24 -12 -29 -11 -54 7 -15 12
-27 30 -26 42 0 11 -4 21 -9 21 -6 0 -2 9 8 20 10 11 13 20 7 20 -6 0 -14 -4
-17 -10 -12 -20 -32 -9 -136 70 -107 83 -244 180 -253 180 -28 0 125 -141 283
-263 34 -26 66 -60 72 -75 12 -32 6 -96 -11 -117 -14 -17 -80 -21 -80 -5 0 6
-11 15 -24 20 -25 9 -82 47 -186 124 -124 91 -200 138 -200 122 0 -6 172 -150
255 -213 44 -33 88 -69 98 -81 17 -19 17 -21 -6 -47 -19 -23 -34 -29 -78 -32
-45 -4 -59 -1 -86 19 -18 12 -79 57 -137 99 -75 56 -108 74 -117 67 -12 -8
-12 -10 -1 -15 17 -7 155 -117 172 -137 17 -22 -5 -75 -37 -87 -52 -20 -180
-7 -190 19 -4 8 2 36 11 63 21 58 14 104 -21 137 -13 12 -35 22 -47 22 -26 0
-36 17 -36 59 0 55 -97 112 -168 98 -22 -4 -30 -1 -37 15 -19 41 -61 62 -132
66 -69 5 -84 11 -161 69 -52 39 -103 43 -161 13 -30 -15 -50 -18 -90 -13 -43
5 -51 3 -51 -11 0 -16 28 -21 87 -16 22 1 22 -1 16 -64 -6 -63 -5 -66 25 -95
32 -33 62 -38 108 -21 27 10 27 10 22 -28 -12 -86 54 -148 145 -137 47 6 47 6
47 -24 0 -22 10 -38 41 -64 42 -36 77 -47 119 -37 32 9 50 2 50 -19 0 -24 61
-61 100 -61 21 0 49 11 74 28 28 19 41 23 44 14 7 -22 73 -42 136 -41 84 1
106 9 125 45 14 26 21 30 46 26 125 -18 201 3 212 60 5 25 10 28 45 28 44 0
93 21 102 45 3 9 6 34 6 56 0 42 5 46 34 24 28 -21 58 -19 97 8 39 26 63 94
48 135 -22 59 -16 67 99 122 59 28 114 61 123 72 22 29 46 17 55 -27 3 -19 10
-37 14 -40 17 -10 162 30 171 47 6 11 4 37 -6 74 -8 32 -15 71 -15 87 l0 30
18 -24 c10 -13 40 -61 66 -106 26 -46 50 -83 53 -83 3 0 -6 19 -20 43 -61 103
-98 177 -116 228 -10 30 -39 97 -64 149 -81 173 -127 272 -127 276 0 2 192 5
428 7 l427 2 -485 2 c-267 1 -503 -1 -525 -5 -27 -5 -43 -14 -50 -29 -19 -44
-136 -42 -280 5 -74 24 -92 26 -240 25 -471 -5 -557 -10 -655 -34 -75 -19
-122 -24 -228 -24 -126 0 -134 1 -150 22 -29 39 -94 43 -606 41 l-481 -3 441
-2z m577 -24 c20 -5 37 -11 37 -12 0 -2 -23 -54 -51 -117 -47 -106 -167 -451
-184 -528 -5 -26 -11 -32 -23 -27 -10 4 -44 11 -77 16 -33 6 -61 11 -62 13
-13 13 106 331 191 506 82 170 84 173 169 149z m1297 -14 c137 -36 209 -47
262 -40 l47 6 22 -43 c34 -66 93 -230 138 -381 23 -74 41 -138 41 -141 0 -9
-235 -116 -256 -116 -8 0 -48 32 -89 70 l-74 70 42 -7 c66 -12 127 -8 187 13
l55 19 -90 6 c-101 7 -190 28 -272 64 -41 18 -303 157 -321 170 -1 1 4 21 12
43 19 52 8 53 -32 3 -35 -44 -80 -68 -137 -72 -33 -3 -40 0 -39 14 3 37 -32 9
-69 -55 -48 -83 -169 -158 -255 -158 -44 0 -100 34 -108 67 -17 64 62 136 123
112 l28 -10 -23 24 -23 25 21 45 c34 72 77 107 231 188 166 88 207 103 258 96
20 -2 55 -1 76 3 75 14 150 10 245 -15z m507 -40 c77 -144 223 -529 223 -589
0 -16 -129 -52 -141 -39 -4 4 -21 55 -38 113 -45 155 -137 423 -165 477 -42
86 -42 91 1 96 81 9 86 6 120 -58z m-1688 -661 c17 -14 31 -35 31 -45 0 -40
-51 -109 -90 -121 -20 -7 -67 18 -79 41 -53 98 55 196 138 125z m224 -75 c47
-13 74 -50 59 -82 -11 -24 -57 -80 -108 -134 -48 -50 -115 -41 -154 22 -45 73
13 171 115 196 43 10 46 10 88 -2z m241 -110 c43 -34 35 -67 -34 -143 -33 -37
-60 -71 -60 -76 0 -5 -14 -17 -31 -25 -39 -21 -78 -12 -111 23 -46 49 -44 63
19 140 32 38 72 77 88 85 43 23 97 21 129 -4z m124 -159 c26 -25 27 -38 6 -88
-23 -56 -62 -92 -100 -92 -45 0 -74 27 -81 76 -5 37 -2 45 34 82 34 36 46 42
80 42 26 0 47 -7 61 -20z"/>
<path d="M4816 6948 c9 -30 10 -32 30 -24 15 6 15 8 -1 26 -24 27 -38 25 -29
-2z"/>
<path d="M6974 7361 c9 -14 -564 -391 -594 -391 -6 0 -10 -5 -10 -10 0 -20
102 41 413 247 119 80 217 149 217 154 0 5 -7 9 -16 9 -8 0 -13 -4 -10 -9z"/>
<path d="M2215 7329 c-4 -6 -5 -12 -2 -15 2 -3 7 2 10 11 7 17 1 20 -8 4z"/>
<path d="M2275 7333 c22 -2 46 -11 53 -20 6 -9 12 -12 12 -7 0 21 -26 34 -64
32 l-41 -1 40 -4z"/>
<path d="M2530 7333 c24 -2 48 -10 53 -16 6 -8 7 -7 4 3 -2 11 -18 15 -53 16
l-49 1 45 -4z"/>
<path d="M7478 7333 c6 -2 18 -2 25 0 6 3 1 5 -13 5 -14 0 -19 -2 -12 -5z"/>
<path d="M7662 7328 c-7 -7 -12 -17 -12 -22 0 -6 6 -3 13 6 8 10 32 18 58 21
l44 4 -45 1 c-26 1 -51 -3 -58 -10z"/>
<path d="M8015 7321 c-3 -6 -12 -27 -19 -48 -8 -21 -24 -63 -36 -93 -12 -30
-17 -50 -12 -45 5 6 17 30 27 55 9 25 26 66 36 93 17 43 19 62 4 38z"/>
<path d="M2494 7305 c20 -92 122 -305 239 -500 209 -349 584 -716 967 -945
252 -152 638 -310 815 -335 22 -3 0 6 -50 20 -559 157 -997 421 -1401 846
-117 123 -219 257 -343 454 -48 75 -150 278 -193 385 -21 52 -37 86 -34 75z"/>
<path d="M7737 7278 c-9 -23 -15 -43 -13 -45 2 -2 11 15 20 38 9 23 15 43 13
45 -2 2 -11 -15 -20 -38z"/>
<path d="M7403 7221 c-180 -369 -532 -761 -912 -1015 -114 -77 -338 -199 -466
-254 -27 -12 -39 -19 -25 -16 52 11 351 167 465 242 397 260 743 636 937 1019
28 57 50 104 47 107 -2 2 -23 -35 -46 -83z"/>
<path d="M2226 7280 c7 -27 34 -71 34 -55 -1 6 -10 26 -21 45 -15 26 -18 29
-13 10z"/>
<path d="M2790 7297 c0 -8 92 -183 101 -192 6 -5 -13 36 -41 93 -43 86 -60
115 -60 99z"/>
<path d="M7508 7285 c-3 -11 -17 -46 -32 -77 -14 -32 -24 -58 -21 -58 8 0 66
133 62 144 -2 6 -6 2 -9 -9z"/>
<path d="M2341 7280 c0 -8 4 -22 9 -30 12 -18 12 -2 0 25 -6 13 -9 15 -9 5z"/>
<path d="M2600 7264 c0 -15 78 -190 120 -271 213 -399 585 -793 985 -1041 157
-97 497 -263 511 -250 1 2 -43 23 -99 47 -468 200 -876 519 -1178 920 -120
160 -253 393 -309 544 -19 50 -30 69 -30 51z"/>
<path d="M2755 7215 c97 -217 206 -388 392 -611 21 -24 41 -44 46 -44 5 0 -13
24 -40 54 -59 64 -182 228 -241 323 -24 37 -73 128 -109 201 -66 135 -91 175
-48 77z"/>
<path d="M7625 7238 c-13 -41 -132 -273 -182 -354 -190 -305 -469 -601 -778
-825 -207 -149 -453 -277 -735 -381 -58 -21 -91 -36 -75 -33 112 22 470 185
659 300 396 242 791 654 1001 1047 68 125 129 258 122 265 -3 2 -8 -6 -12 -19z"/>
<path d="M7847 7178 c-15 -34 -25 -63 -23 -65 2 -2 15 24 30 58 15 34 25 63
23 65 -2 2 -16 -24 -30 -58z"/>
<path d="M7685 7158 c-81 -183 -238 -436 -370 -598 -109 -133 -146 -174 -290
-310 -465 -441 -1069 -720 -1694 -781 -196 -20 -531 0 -715 41 -27 6 -51 9
-53 6 -6 -6 81 -24 202 -42 145 -22 437 -29 580 -14 147 14 380 60 517 101
337 100 719 301 993 522 237 191 497 478 641 707 96 154 232 415 221 426 -2 3
-17 -24 -32 -58z"/>
<path d="M2260 7205 c0 -5 5 -17 10 -25 5 -8 10 -10 10 -5 0 6 -5 17 -10 25
-5 8 -10 11 -10 5z"/>
<path d="M2376 7190 c8 -30 122 -260 129 -260 3 0 -21 53 -53 118 -32 64 -64
128 -70 142 l-12 25 6 -25z"/>
<path d="M2286 7140 c9 -35 132 -271 200 -382 97 -159 263 -371 406 -518 176
-182 445 -397 645 -518 120 -72 370 -202 386 -201 7 0 -17 14 -53 31 -513 239
-975 631 -1313 1114 -72 103 -112 172 -204 354 -41 80 -71 134 -67 120z"/>
<path d="M7409 7078 c-42 -83 -207 -324 -286 -418 -107 -127 -290 -302 -411
-392 -141 -105 -160 -120 -136 -109 41 20 190 135 281 218 190 173 319 321
442 505 74 112 147 238 137 238 -3 0 -15 -19 -27 -42z"/>
<path d="M7906 7064 c-15 -31 -25 -58 -23 -61 2 -2 16 22 31 53 15 31 25 58
23 60 -2 2 -15 -22 -31 -52z"/>
<path d="M2932 7032 c18 -32 44 -71 57 -88 l23 -29 -18 30 c-10 17 -33 56 -52
88 -45 75 -53 74 -10 -1z"/>
<path d="M3210 7070 c-11 -7 -5 -8 20 -4 43 8 51 14 19 14 -13 0 -31 -5 -39
-10z"/>
<path d="M6997 7070 c36 -8 59 -28 72 -62 8 -18 10 -19 10 -5 1 29 -53 77 -86
76 l-28 -1 32 -8z"/>
<path d="M3301 7044 c13 -17 26 -30 28 -27 3 2 -8 16 -24 31 l-28 27 24 -31z"/>
<path d="M6916 7038 c-9 -12 -15 -38 -15 -58 l2 -35 6 42 c4 23 13 48 20 57 8
9 11 16 8 16 -3 0 -13 -10 -21 -22z"/>
<path d="M7786 7043 c-6 -14 -5 -15 5 -6 7 7 10 15 7 18 -3 3 -9 -2 -12 -12z"/>
<path d="M7741 6960 c-18 -33 -30 -60 -28 -60 8 0 69 112 64 116 -2 2 -18 -23
-36 -56z"/>
<path d="M3151 6982 c-1 -44 44 -92 87 -92 29 0 92 41 92 60 0 5 -13 -5 -29
-21 -54 -53 -126 -30 -141 47 l-8 39 -1 -33z"/>
<path d="M6524 6994 c-19 -15 -19 -15 1 -6 11 5 27 12 35 15 13 5 13 6 -1 6
-8 1 -24 -6 -35 -15z"/>
<path d="M3685 6981 c21 -24 75 -66 75 -58 0 3 -21 22 -47 43 -27 21 -39 28
-28 15z"/>
<path d="M7810 6880 c-33 -60 -80 -138 -103 -172 -55 -80 -59 -88 -52 -88 9 0
128 187 179 283 26 48 45 87 43 87 -3 0 -33 -49 -67 -110z"/>
<path d="M6468 6964 c-38 -20 -36 -28 2 -9 17 9 30 18 30 20 0 7 -1 6 -32 -11z"/>
<path d="M6457 6921 c-26 -22 -52 -41 -58 -43 -7 -2 -2 -22 14 -53 29 -55 37
-47 10 9 -16 35 -16 35 13 58 44 35 80 67 74 68 -3 0 -27 -18 -53 -39z"/>
<path d="M7060 6936 c-21 -41 -81 -48 -126 -15 l-29 21 28 -26 c30 -27 59 -32
101 -16 23 8 53 47 43 56 -2 2 -9 -7 -17 -20z"/>
<path d="M6405 6931 c-11 -5 -24 -6 -29 -3 -5 3 -6 0 -2 -6 9 -16 18 -15 42 3
21 16 19 17 -11 6z"/>
<path d="M3770 6917 c0 -2 14 -16 30 -30 17 -15 30 -23 30 -19 0 5 -13 18 -30
30 -16 13 -30 21 -30 19z"/>
<path d="M3045 6858 c114 -159 266 -324 430 -463 65 -56 236 -185 244 -185 7
0 -1 6 -104 85 -231 177 -417 364 -552 552 -25 35 -47 63 -50 63 -3 0 12 -24
32 -52z"/>
<path d="M2530 6880 c27 -52 115 -188 172 -265 68 -92 239 -294 251 -294 4 -1
-31 43 -78 96 -115 131 -179 215 -270 358 -77 121 -99 151 -75 105z"/>
<path d="M7654 6813 c-297 -478 -750 -887 -1259 -1134 -77 -38 -135 -68 -130
-69 6 0 70 29 143 65 473 230 910 613 1199 1050 73 111 106 165 100 165 -3 0
-27 -35 -53 -77z"/>
<path d="M3792 6795 c-17 -37 -14 -45 4 -12 9 16 14 31 11 33 -2 2 -9 -7 -15
-21z"/>
<path d="M6441 6765 c0 -5 6 -21 14 -35 8 -14 14 -20 14 -15 0 6 -6 21 -14 35
-8 14 -14 21 -14 15z"/>
<path d="M3761 6719 c-6 -18 -9 -34 -7 -36 2 -2 9 10 15 28 6 18 9 34 7 36 -2
2 -9 -10 -15 -28z"/>
<path d="M6742 6700 c0 -14 2 -19 5 -12 2 6 2 18 0 25 -3 6 -5 1 -5 -13z"/>
<path d="M6611 6694 c0 -11 3 -14 6 -6 3 7 2 16 -1 19 -3 4 -6 -2 -5 -13z"/>
<path d="M6470 6695 c1 -6 7 -21 16 -35 l15 -25 -7 25 c-7 26 -24 52 -24 35z"/>
<path d="M3490 6671 c0 -6 4 -13 10 -16 6 -3 7 1 4 9 -7 18 -14 21 -14 7z"/>
<path d="M3599 6653 c-13 -16 -12 -17 4 -4 9 7 17 15 17 17 0 8 -8 3 -21 -13z"/>
<path d="M3736 6655 c-9 -26 -7 -32 5 -12 6 10 9 21 6 23 -2 3 -7 -2 -11 -11z"/>
<path d="M6450 6630 c6 -11 13 -20 16 -20 2 0 0 9 -6 20 -6 11 -13 20 -16 20
-2 0 0 -9 6 -20z"/>
<path d="M7594 6548 c-89 -116 -252 -303 -321 -369 -226 -219 -515 -425 -782
-558 -57 -29 -101 -55 -98 -57 6 -6 186 88 312 164 339 203 700 536 923 850
40 55 17 35 -34 -30z"/>
<path d="M6470 6598 c0 -7 45 -77 57 -88 10 -9 -25 54 -41 75 -8 11 -16 17
-16 13z"/>
<path d="M6510 6595 c0 -5 5 -17 10 -25 5 -8 10 -10 10 -5 0 6 -5 17 -10 25
-5 8 -10 11 -10 5z"/>
<path d="M3720 6550 c-6 -11 -8 -20 -6 -20 3 0 10 9 16 20 6 11 8 20 6 20 -3
0 -10 -9 -16 -20z"/>
<path d="M3225 6521 c128 -142 432 -380 585 -458 54 -28 41 -18 -96 68 -125
80 -136 88 -127 102 3 6 1 7 -5 3 -16 -10 -109 63 -262 203 -69 63 -111 100
-95 82z"/>
<path d="M3720 6385 c0 -2 30 -24 68 -48 37 -24 96 -63 132 -87 139 -91 562
-275 659 -286 20 -2 29 -1 21 2 -8 4 -55 27 -105 51 -49 25 -151 72 -225 105
-74 33 -209 98 -300 144 -169 87 -250 126 -250 119z"/>
<path d="M6360 6318 c-121 -64 -449 -220 -665 -315 -94 -41 -112 -55 -59 -43
133 30 390 135 569 234 125 68 318 197 293 196 -2 0 -64 -33 -138 -72z"/>
<path d="M2970 6302 c0 -5 14 -21 30 -35 17 -15 30 -23 30 -19 0 5 -13 21 -30
35 -16 15 -30 23 -30 19z"/>
<path d="M3090 6186 c45 -48 185 -164 290 -242 110 -80 360 -233 360 -221 0 3
-26 20 -57 38 -192 108 -424 277 -583 423 l-55 51 45 -49z"/>
<path d="M3740 6198 c19 -18 90 -61 90 -55 0 3 -24 20 -52 37 -29 18 -46 25
-38 18z"/>
<path d="M6507 6125 c-37 -26 -52 -44 -19 -26 23 14 68 50 62 51 -3 0 -22 -11
-43 -25z"/>
<path d="M3845 6132 c14 -14 245 -135 250 -131 2 2 -56 35 -128 72 -73 38
-127 64 -122 59z"/>
<path d="M6295 6005 c-88 -47 -156 -85 -151 -85 11 0 279 137 303 156 32 24
10 14 -152 -71z"/>
<path d="M3860 6035 c0 -7 61 -37 66 -33 2 3 -12 12 -31 21 -19 9 -35 15 -35
12z"/>
<path d="M4117 5989 c7 -7 15 -10 18 -7 3 3 -2 9 -12 12 -14 6 -15 5 -6 -5z"/>
<path d="M3967 5979 c7 -7 15 -10 18 -7 3 3 -2 9 -12 12 -14 6 -15 5 -6 -5z"/>
<path d="M5089 5923 l-24 -68 -65 -3 c-36 -2 -69 -7 -74 -12 -5 -5 9 -19 31
-33 72 -45 72 -46 57 -128 -8 -40 -12 -74 -10 -76 2 -2 25 14 50 37 26 22 54
40 62 40 8 0 33 -13 56 -30 70 -51 83 -37 51 55 -15 47 -15 49 4 64 10 9 37
30 59 48 l39 32 -72 1 c-81 0 -83 1 -109 91 -8 27 -19 49 -23 49 -5 0 -19 -30
-32 -67z"/>
<path d="M4040 5945 c25 -13 50 -24 55 -24 6 0 -10 11 -35 24 -25 13 -49 24
-55 24 -5 0 10 -11 35 -24z"/>
<path d="M4230 5935 c14 -8 30 -14 35 -14 6 0 -1 6 -15 14 -14 8 -29 14 -35
14 -5 0 1 -6 15 -14z"/>
<path d="M4130 5905 c14 -8 30 -14 35 -14 6 0 -1 6 -15 14 -14 8 -29 14 -35
14 -5 0 1 -6 15 -14z"/>
<path d="M6022 5882 c-51 -19 -91 -37 -88 -39 4 -4 155 50 182 66 33 19 1 10
-94 -27z"/>
<path d="M4320 5900 c8 -5 20 -10 25 -10 6 0 3 5 -5 10 -8 5 -19 10 -25 10 -5
0 -3 -5 5 -10z"/>
<path d="M5870 5890 c-8 -5 -10 -10 -5 -10 6 0 17 5 25 10 8 5 11 10 5 10 -5
0 -17 -5 -25 -10z"/>
<path d="M4190 5882 c8 -5 26 -13 40 -16 17 -5 20 -4 10 2 -8 5 -26 13 -40 16
-17 5 -20 4 -10 -2z"/>
<path d="M4390 5870 c19 -11 40 -19 45 -19 6 0 -6 8 -25 19 -19 11 -39 19 -45
19 -5 0 6 -8 25 -19z"/>
<path d="M5820 5870 c-8 -5 -10 -10 -5 -10 6 0 17 5 25 10 8 5 11 10 5 10 -5
0 -17 -5 -25 -10z"/>
<path d="M4285 5845 c17 -8 37 -14 45 -14 8 0 -1 7 -20 14 -46 18 -64 17 -25
0z"/>
<path d="M5554 5844 c-18 -14 -18 -14 6 -3 31 14 36 19 24 19 -6 0 -19 -7 -30
-16z"/>
<path d="M4450 5846 c0 -2 7 -7 16 -10 8 -3 12 -2 9 4 -6 10 -25 14 -25 6z"/>
<path d="M4596 5828 c-9 -12 -16 -32 -15 -43 0 -14 3 -11 10 10 5 16 16 36 26
42 9 7 12 13 5 13 -6 0 -18 -10 -26 -22z"/>
<path d="M4679 5831 c11 -11 21 -30 21 -41 0 -11 -10 -30 -21 -41 -12 -12 -15
-19 -8 -17 8 3 21 17 29 31 13 24 13 30 0 54 -8 14 -21 28 -29 31 -7 2 -4 -5
8 -17z"/>
<path d="M5612 5839 c10 -5 22 -17 27 -27 6 -9 11 -12 11 -5 0 6 -7 19 -16 27
-8 9 -21 16 -27 16 -7 0 -4 -5 5 -11z"/>
<path d="M5751 5836 c-16 -19 -3 -46 23 -45 17 1 17 2 3 6 -9 2 -14 9 -11 15
4 7 2 8 -4 4 -16 -9 -15 7 0 22 7 7 9 12 6 12 -3 0 -11 -6 -17 -14z"/>
<path d="M5845 5820 c-27 -10 -43 -18 -35 -18 8 0 38 8 65 18 28 10 43 18 35
18 -8 0 -37 -8 -65 -18z"/>
<path d="M4388 5813 c7 -3 16 -2 19 1 4 3 -2 6 -13 5 -11 0 -14 -3 -6 -6z"/>
<path d="M4476 5809 c4 -8 -4 -9 -27 -5 -33 6 -33 5 -6 -5 29 -12 57 -6 57 11
0 5 -7 10 -16 10 -8 0 -12 -5 -8 -11z"/>
<path d="M5540 5751 c0 -10 19 -25 25 -20 1 2 -3 10 -11 17 -8 7 -14 8 -14 3z"/>
<path d="M5629 5743 c-13 -16 -12 -17 4 -4 9 7 17 15 17 17 0 8 -8 3 -21 -13z"/>
<path d="M4607 5739 c7 -7 15 -10 18 -7 3 3 -2 9 -12 12 -14 6 -15 5 -6 -5z"/>
<path d="M3789 5694 c51 -31 222 -106 228 -101 2 2 -32 19 -74 36 -43 18 -102
46 -130 62 -65 36 -84 38 -24 3z"/>
<path d="M4232 5695 c17 -17 353 -115 395 -115 32 0 6 9 -72 25 -44 9 -134 34
-199 56 -121 40 -133 43 -124 34z"/>
<path d="M5725 5618 c-38 -10 -128 -30 -200 -43 -89 -17 -109 -23 -65 -19 73
6 269 47 327 69 55 20 20 16 -62 -7z"/>
<path d="M6182 5588 c-29 -12 -51 -22 -49 -24 5 -5 100 27 112 37 14 13 -3 10
-63 -13z"/>
<path d="M4065 5571 c22 -10 51 -22 65 -25 14 -3 7 2 -15 13 -22 10 -51 21
-65 24 -14 4 -7 -2 15 -12z"/>
<path d="M4710 5564 c36 -7 81 -13 100 -13 19 1 -3 7 -50 15 -107 17 -136 16
-50 -2z"/>
<path d="M6090 5550 c-8 -5 -10 -10 -5 -10 6 0 17 5 25 10 8 5 11 10 5 10 -5
0 -17 -5 -25 -10z"/>
<path d="M6350 5550 c-8 -5 -10 -10 -5 -10 6 0 17 5 25 10 8 5 11 10 5 10 -5
0 -17 -5 -25 -10z"/>
<path d="M4905 5539 c78 -9 365 -9 435 -1 30 4 -69 7 -220 7 -151 0 -248 -3
-215 -6z"/>
<path d="M4162 5535 c8 -9 151 -55 167 -55 9 1 -24 14 -74 30 -95 31 -101 33
-93 25z"/>
<path d="M6035 5530 c-13 -6 -15 -9 -5 -9 8 0 22 4 30 9 18 12 2 12 -25 0z"/>
<path d="M6290 5525 c-14 -8 -20 -14 -15 -14 6 0 21 6 35 14 14 8 21 14 15 14
-5 0 -21 -6 -35 -14z"/>
<path d="M3940 5517 c0 -7 190 -80 196 -75 3 4 -48 25 -183 75 -7 3 -13 3 -13
0z"/>
<path d="M5920 5495 c-19 -7 -28 -13 -20 -13 8 0 31 6 50 13 19 7 28 13 20 13
-8 0 -31 -6 -50 -13z"/>
<path d="M6155 5473 c-49 -19 -147 -51 -217 -71 -70 -20 -125 -38 -123 -40 10
-10 366 102 425 134 41 22 10 14 -85 -23z"/>
<path d="M4365 5471 c11 -4 36 -11 55 -15 24 -4 29 -3 15 3 -11 4 -36 11 -55
15 -24 4 -29 3 -15 -3z"/>
<path d="M5835 5470 c-13 -5 -14 -9 -5 -9 8 0 24 4 35 9 13 5 14 9 5 9 -8 0
-24 -4 -35 -9z"/>
<path d="M5788 5453 c7 -3 16 -2 19 1 4 3 -2 6 -13 5 -11 0 -14 -3 -6 -6z"/>
<path d="M4468 5443 c7 -3 16 -2 19 1 4 3 -2 6 -13 5 -11 0 -14 -3 -6 -6z"/>
<path d="M5748 5443 c7 -3 16 -2 19 1 4 3 -2 6 -13 5 -11 0 -14 -3 -6 -6z"/>
<path d="M4160 5432 c36 -23 431 -123 475 -121 l20 1 -20 5 c-11 2 -72 16
-135 30 -63 14 -157 37 -210 52 -149 44 -147 43 -130 33z"/>
<path d="M4508 5433 c7 -3 16 -2 19 1 4 3 -2 6 -13 5 -11 0 -14 -3 -6 -6z"/>
<path d="M5626 5424 c-38 -9 -108 -22 -155 -30 -71 -11 -76 -13 -26 -9 59 4
276 43 284 51 8 7 -34 2 -103 -12z"/>
<path d="M4570 5420 c14 -4 34 -8 45 -8 16 0 15 2 -5 8 -14 4 -34 8 -45 8 -16
0 -15 -2 5 -8z"/>
<path d="M4675 5400 c17 -4 44 -8 60 -8 25 0 24 2 -10 9 -51 10 -92 10 -50 -1z"/>
<path d="M4793 5383 c9 -2 25 -2 35 0 9 3 1 5 -18 5 -19 0 -27 -2 -17 -5z"/>
<path d="M4883 5373 c15 -2 39 -2 55 0 15 2 2 4 -28 4 -30 0 -43 -2 -27 -4z"/>
<path d="M5288 5373 c17 -2 47 -2 65 0 17 2 3 4 -33 4 -36 0 -50 -2 -32 -4z"/>
<path d="M5053 5363 c31 -2 83 -2 115 0 31 2 5 3 -58 3 -63 0 -89 -1 -57 -3z"/>
<path d="M5700 5340 c-41 -10 -67 -18 -58 -19 19 -1 150 28 157 35 8 7 -22 2
-99 -16z"/>
<path d="M5540 5313 c-14 -3 -74 -11 -135 -18 l-110 -14 90 5 c91 6 266 32
210 31 -16 0 -41 -2 -55 -4z"/>
<path d="M4730 5295 c41 -7 100 -13 130 -13 l55 1 -65 7 c-36 4 -94 10 -130
13 l-65 6 75 -14z"/>
<path d="M5013 5273 c54 -2 139 -2 190 0 51 1 7 3 -98 3 -104 0 -146 -2 -92
-3z"/>
</g>
</svg>
